<svg width="109" height="126" viewBox="0 0 109 126" fill="none" xmlns="http://www.w3.org/2000/svg">
<path d="M75.0348 102.762C81.2613 102.028 86.907 106.472 87.6563 112.697C88.4057 118.921 83.9758 124.578 77.7532 125.343C71.5084 126.111 65.8268 121.662 65.0748 115.415C64.3229 109.168 68.7861 103.498 75.0348 102.762ZM77.1916 121.562C81.2738 121.087 84.2071 117.407 83.7586 113.322C83.3102 109.237 79.648 106.28 75.5602 106.702C71.4353 107.128 68.4458 110.831 68.8983 114.953C69.3509 119.075 73.0725 122.041 77.1916 121.562Z" fill="#417BFD"/>
<path d="M10.652 102.824C12.0624 102.794 13.5579 102.817 14.9751 102.816C15.3604 103.534 15.8125 104.812 16.1252 105.612L18.1316 110.768C19.9071 115.371 21.9424 120.336 23.542 124.951L19.488 124.954C18.9451 123.88 17.9935 121.31 17.5584 120.117L14.9364 120.118C12.7138 120.118 10.2227 120.172 8.02174 120.093C7.45533 121.685 6.78081 123.376 6.17659 124.964L2 124.947L8.11137 109.105L9.59152 105.288C9.84991 104.624 10.2924 103.39 10.652 102.824ZM9.14356 116.795L12.6933 116.794L16.2846 116.799C15.8583 115.679 12.873 107.373 12.6776 107.184C11.5311 110.399 10.3532 113.603 9.14356 116.795Z" fill="#417BFD"/>
<path d="M45.6811 108.497C48.1598 108.397 49.6165 109.348 50.7143 111.48C52.0568 109.538 53.8287 108.487 56.2201 108.499C62.6966 108.531 62.2107 114.148 62.2052 118.825L62.2109 124.963C60.9983 124.935 59.7402 124.953 58.5237 124.955L58.529 118.752C58.5295 116.141 59.1006 111.947 55.3357 111.961C51.4478 111.975 51.4794 115.414 51.4926 118.268L51.5129 121.438L51.5126 124.961C50.3501 124.929 49.0872 124.951 47.9171 124.95C47.9033 122.85 47.9008 120.751 47.9097 118.651C47.9151 116.379 48.3769 112.054 44.9936 111.99C40.5325 111.907 40.9604 116.081 40.9658 119.184L40.9814 124.965C39.7778 124.927 38.4444 124.955 37.2311 124.957C37.2283 119.686 37.1532 114.191 37.2438 108.934C38.3631 108.85 39.7768 108.905 40.9489 108.871C40.9571 109.652 40.9711 110.433 40.9908 111.214C42.1442 109.351 43.5849 108.714 45.6811 108.497Z" fill="#417BFD"/>
<path d="M97.5758 102.755C100.181 102.607 102.579 103.462 104.861 104.597C104.509 105.801 104.248 107.148 103.907 108.39C102.22 107.121 100.099 106.313 97.9646 106.254C96.1403 106.203 94.0398 106.833 94.0381 109.041C94.0364 111.309 96.8273 111.77 98.5255 112.227C100.498 112.757 102.67 113.24 104.168 114.735C106.37 116.89 106.095 121.006 103.911 123.073C101.875 125.002 99.4688 125.333 96.7902 125.289C94.6861 125.153 91.4083 124.295 89.8184 122.889C90.1572 121.612 90.4329 120.382 90.7188 119.092C92.9776 120.779 95.1516 121.858 98.0539 121.81C99.9152 121.779 101.966 120.788 101.677 118.609C101.326 115.958 96.6999 115.77 94.6035 114.903C92.1924 114.038 90.1674 112.471 90.0491 109.659C89.851 104.95 93.4094 103 97.5758 102.755Z" fill="#417BFD"/>
<path d="M26.9581 104.838L29.79 104.827C29.7325 106.035 29.79 107.664 29.7972 108.904C31.2437 108.925 32.9579 108.932 34.3922 108.87L34.4071 112.243C32.8706 112.226 31.334 112.231 29.7977 112.256C29.7945 113.985 29.5615 119.542 30.0204 120.754C30.2193 121.279 30.5815 121.723 31.1147 121.93C32.1676 122.338 33.488 121.871 34.4575 121.42C34.4066 122.185 34.4261 123.079 34.4246 123.854L34.4451 124.739C30.9397 125.976 26.0282 125.48 26.0399 120.787C26.0469 117.986 25.9306 115.049 26.0211 112.266C25.1895 112.236 24.325 112.24 23.4902 112.232C23.5114 111.161 23.4922 110.024 23.4929 108.947C24.3748 108.915 25.143 108.931 26.0224 108.954C26.0411 107.597 26.0374 106.24 26.0117 104.883L26.9581 104.838Z" fill="#417BFD"/>
<path d="M82.1813 30.8389C85.0368 30.8306 88.7083 31.6144 91.2008 32.9768C97.9807 36.6824 97.0488 44.4847 93.648 50.313C88.0966 59.8272 77.8009 64.88 67.5601 67.7698C63.3254 68.9648 59.0422 69.935 54.7823 71.0312C50.7737 72.211 46.078 74.0581 43.8493 77.7941C42.5784 79.9244 42.84 82.8193 45.2773 83.9038C50.4012 86.1834 57.5002 84.7289 62.6114 83.0792C70.4951 80.2425 77.5547 75.4996 83.1613 69.2735C84.5833 67.7055 86.019 65.8504 87.3194 64.1693C87.6528 64.7339 87.3712 64.8415 87.3429 65.5056C84.7223 72.4116 78.7192 79.9917 72.7974 84.3391C72.0734 84.8705 70.3678 86.1289 69.608 86.5281C69.4984 86.6335 69.3668 86.7067 69.2342 86.7891C61.9992 91.2886 53.2883 93.7165 44.8212 91.8505C40.6566 90.9327 36.6143 88.7183 34.3137 85.0516C32.6008 82.3217 32.0667 78.5979 32.8882 75.4548C36.5862 61.3061 54.4901 59.7788 66.1874 56.3228C71.611 54.7758 76.4344 53.1317 81.3145 50.1656C86.3527 47.1033 92.4424 40.9848 88.7871 34.6539C87.555 32.5198 84.5119 31.347 82.1813 30.8389Z" fill="url(#paint0_linear_89_10339)"/>
<path d="M87.3193 64.1709C87.6527 64.7355 87.3712 64.8431 87.3428 65.5071C84.7222 72.4131 78.7191 79.9933 72.7973 84.3407C72.0733 84.8721 70.3678 86.1305 69.608 86.5297C69.7995 85.8678 73.4714 83.7871 74.1247 82.9328L74.0169 82.7156C73.9113 82.7461 73.8179 82.7849 73.7182 82.8305C73.432 82.6491 72.9914 82.513 72.7937 82.3216C71.9962 81.5491 72.4218 79.7499 72.404 78.5921C70.7464 79.6823 64.4123 83.2445 62.6113 83.0807C70.4951 80.244 77.5547 75.5012 83.1613 69.2751C84.5833 67.7071 86.0189 65.852 87.3193 64.1709Z" fill="url(#paint1_linear_89_10339)"/>
<path d="M61.9042 30.6084C62.5461 30.6317 63.1701 30.5736 63.8075 30.7993C64.8465 31.1675 65.6302 32.4359 66.4826 32.9355C67.2853 33.4056 68.5548 33.7788 69.3635 34.4683C69.3835 34.4853 69.7946 34.432 69.8656 34.4202C70.1981 34.5608 70.6604 34.9801 70.9201 35.07C72.1404 35.4928 74.6301 35.957 73.5012 37.7693L73.5336 37.9294C72.3276 39.4887 70.3059 41.1932 68.6676 42.3387C61.1892 47.5673 51.754 49.3425 43.0718 51.5785C36.4754 53.2772 29.8919 55.136 24.6469 59.7129C24.5002 59.7004 24.5828 59.7152 24.4022 59.6524C24.7044 59.1468 24.5078 58.9812 24.1099 58.5648L24.0111 58.4635C23.6814 58.122 23.0847 57.7723 22.7045 57.5512C20.56 56.3051 19.1968 54.6869 17.9545 52.5902C17.677 52.1217 17.6085 51.7169 17.0193 51.7411L16.9668 51.6538C17.3048 51.1855 17.565 50.8216 17.8204 50.2927L17.8787 50.1691C18.1596 49.7361 19.7139 48.4299 20.164 48.0454C20.7049 47.7917 22.0227 46.6687 22.6307 46.2739C28.7324 42.3115 35.6909 39.9241 42.6071 37.8159C44.663 37.1891 46.7726 36.6316 48.8125 35.9594C49.9027 35.6942 51.3327 35.1833 52.4036 34.833C55.8187 33.7156 58.8636 32.5274 61.9042 30.6084Z" fill="url(#paint2_linear_89_10339)"/>
<path d="M33.3827 20.4523C34.5613 19.5142 36.4111 18.4482 37.7177 17.6931C44.8538 13.5685 53.5386 11.3342 61.787 12.1759C66.5955 12.6665 72.3255 14.7969 75.4109 18.6453C77.5853 21.3574 78.3369 24.7898 77.9038 28.2917C77.4925 31.6164 75.909 35.3873 73.5684 37.9053C73.5569 37.9136 73.5453 37.9218 73.5336 37.93L73.5013 37.7699C74.6301 35.9575 72.1404 35.4934 70.9202 35.0706C70.6604 34.9807 70.1982 34.5613 69.8656 34.4207C69.7947 34.4326 69.3835 34.4859 69.3635 34.4689C68.5549 33.7794 67.2853 33.4062 66.4827 32.9361C65.6302 32.4365 64.8466 31.1681 63.8076 30.7999C63.1702 30.5742 62.5462 30.6323 61.9043 30.609C63.8506 29.2904 66.5222 26.7764 66.0516 24.0458C65.8853 23.0804 65.0119 21.9626 64.1488 21.4885C60.2735 19.3595 54.6868 20.1836 50.5577 21.1185C46.7844 21.9238 43.1092 23.1351 39.5967 24.7312C38.4314 25.2603 37.3329 25.9193 36.2017 26.4451C35.4672 26.1259 33.5993 27.9299 32.8353 28.0688L32.8288 27.9775C34.5916 25.8288 31.3888 23.4839 31.4461 22.6596C31.5092 21.7542 32.8444 21.1788 33.4243 20.6132L33.3827 20.4523Z" fill="url(#paint3_linear_89_10339)"/>
<path d="M28.3407 75.3804C27.0999 75.12 25.8092 74.9574 24.5572 74.6902C20.8816 73.9062 17.3605 72.5087 14.8392 69.6002C12.8143 67.2644 11.999 64.4181 12.1784 61.3633C12.4088 57.4394 14.9358 52.7188 17.8801 50.1699L17.8218 50.2935C17.5664 50.8225 17.3062 51.1863 16.9682 51.6546L17.0207 51.7419C17.6099 51.7177 17.6784 52.1225 17.9559 52.591C19.1982 54.6877 20.5614 56.3059 22.7059 57.552C23.0861 57.7731 23.6828 58.1228 24.0125 58.4643L24.1113 58.5656C24.5093 58.9821 24.7058 59.1476 24.4036 59.6532C24.5842 59.7161 24.5016 59.7012 24.6484 59.7137C18.0141 65.8732 20.3638 72.3298 28.3407 75.3804Z" fill="#1833CA"/>
<path d="M33.384 20.4521L33.4257 20.6131C32.8458 21.1786 31.5105 21.7541 31.4474 22.6595C31.3901 23.4838 34.593 25.8287 32.8301 27.9774L32.8366 28.0687C33.6006 27.9297 35.4686 26.1257 36.2031 26.4449C32.764 28.369 29.5789 30.4274 26.5748 32.9977C25.3267 34.0409 24.1236 35.1366 22.9685 36.2817C22.3909 36.8583 21.7257 37.6118 21.1596 38.1454L20.9845 38.0236L20.9999 37.8897C21.2186 37.6986 21.3011 37.6228 21.4928 37.4081C21.5288 37.0919 21.1541 35.4644 21.2238 34.9432C21.2636 34.6451 20.9347 33.4925 20.8359 33.1613C21.0698 32.7902 21.0968 32.763 21.2021 32.3465C23.0159 29.2195 30.2803 22.3215 33.384 20.4521Z" fill="url(#paint4_linear_89_10339)"/>
<path d="M21.2001 32.3477C21.0948 32.7641 21.0678 32.7913 20.8339 33.1625C20.9327 33.4936 21.2616 34.6463 21.2217 34.9443C21.1521 35.4656 21.5268 37.093 21.4908 37.4092C21.299 37.6239 21.2166 37.6997 20.9978 37.8908L20.9825 38.0247L21.1576 38.1465C20.1632 39.2242 18.9503 40.9452 18.1082 41.8193C16.7005 43.7934 15.5079 45.5616 14.3269 47.6833C13.9079 47.7691 14.0985 47.8044 13.7363 47.5689C14.7577 44.2352 16.0648 40.6745 17.8463 37.6579C18.2083 36.7052 20.5176 33.2249 21.2001 32.3477Z" fill="#1833CA"/>
<path d="M17.8463 37.6562C17.8841 38.6675 17.2312 39.1869 17.2162 39.8706C17.1969 40.7502 17.1997 41.7552 17.1729 42.6688C17.4515 42.2338 17.5601 41.8853 18.1082 41.8177C16.7005 43.7918 15.5079 45.56 14.3269 47.6817C13.9079 47.7675 14.0985 47.8028 13.7363 47.5672C14.7577 44.2336 16.0648 40.6729 17.8463 37.6562Z" fill="url(#paint5_linear_89_10339)"/>
<path d="M87.3184 64.1705L88.5005 62.4941C88.128 63.5168 87.7753 64.5074 87.3418 65.5068C87.3702 64.8427 87.6517 64.7351 87.3184 64.1705Z" fill="#0E1133" fill-opacity="0.988235"/>
<path d="M13.7379 47.5674C14.1001 47.8029 13.9095 47.7676 14.3285 47.6818C13.8913 48.4873 13.6586 49.0327 13.2734 49.805C13.3033 49.3014 13.6238 48.1313 13.7379 47.5674Z" fill="#0E1133"/>
<g opacity="0.25" filter="url(#filter0_f_89_10339)">
<path d="M82.1813 30.8389C85.0368 30.8306 88.7083 31.6144 91.2008 32.9768C97.9807 36.6824 97.0488 44.4847 93.648 50.313C88.0966 59.8272 77.8009 64.88 67.5601 67.7698C63.3254 68.9648 59.0422 69.935 54.7823 71.0312C50.7737 72.211 46.078 74.0581 43.8493 77.7941C42.5784 79.9244 42.84 82.8193 45.2773 83.9038C50.4012 86.1834 57.5002 84.7289 62.6114 83.0792C70.4951 80.2425 77.5547 75.4996 83.1613 69.2735C84.5833 67.7055 86.019 65.8504 87.3194 64.1693C87.6528 64.7339 87.3712 64.8415 87.3429 65.5056C84.7223 72.4116 78.7192 79.9917 72.7974 84.3391C72.0734 84.8705 70.3678 86.1289 69.608 86.5281C69.4984 86.6335 69.3668 86.7067 69.2342 86.7891C61.9992 91.2886 53.2883 93.7165 44.8212 91.8505C40.6566 90.9327 36.6143 88.7183 34.3137 85.0516C32.6008 82.3217 32.0667 78.5979 32.8882 75.4548C36.5862 61.3061 54.4901 59.7788 66.1874 56.3228C71.611 54.7758 76.4344 53.1317 81.3145 50.1656C86.3527 47.1033 92.4424 40.9848 88.7871 34.6539C87.555 32.5198 84.5119 31.347 82.1813 30.8389Z" fill="url(#paint6_linear_89_10339)"/>
<path d="M87.3193 64.1709C87.6527 64.7355 87.3712 64.8431 87.3428 65.5071C84.7222 72.4131 78.7191 79.9933 72.7973 84.3407C72.0733 84.8721 70.3678 86.1305 69.608 86.5297C69.7995 85.8678 73.4714 83.7871 74.1247 82.9328L74.0169 82.7156C73.9113 82.7461 73.8179 82.7849 73.7182 82.8305C73.432 82.6491 72.9914 82.513 72.7937 82.3216C71.9962 81.5491 72.4218 79.7499 72.404 78.5921C70.7464 79.6823 64.4123 83.2445 62.6113 83.0807C70.4951 80.244 77.5547 75.5012 83.1613 69.2751C84.5833 67.7071 86.0189 65.852 87.3193 64.1709Z" fill="url(#paint7_linear_89_10339)"/>
<path d="M61.9042 30.6084C62.5461 30.6317 63.1701 30.5736 63.8075 30.7993C64.8465 31.1675 65.6302 32.4359 66.4826 32.9355C67.2853 33.4056 68.5548 33.7788 69.3635 34.4683C69.3835 34.4853 69.7946 34.432 69.8656 34.4202C70.1981 34.5608 70.6604 34.9801 70.9201 35.07C72.1404 35.4928 74.6301 35.957 73.5012 37.7693L73.5336 37.9294C72.3276 39.4887 70.3059 41.1932 68.6676 42.3387C61.1892 47.5673 51.754 49.3425 43.0718 51.5785C36.4754 53.2772 29.8919 55.136 24.6469 59.7129C24.5002 59.7004 24.5828 59.7152 24.4022 59.6524C24.7044 59.1468 24.5078 58.9812 24.1099 58.5648L24.0111 58.4635C23.6814 58.122 23.0847 57.7723 22.7045 57.5512C20.56 56.3051 19.1968 54.6869 17.9545 52.5902C17.677 52.1217 17.6085 51.7169 17.0193 51.7411L16.9668 51.6538C17.3048 51.1855 17.565 50.8216 17.8204 50.2927L17.8787 50.1691C18.1596 49.7361 19.7139 48.4299 20.164 48.0454C20.7049 47.7917 22.0227 46.6687 22.6307 46.2739C28.7324 42.3115 35.6909 39.9241 42.6071 37.8159C44.663 37.1891 46.7726 36.6316 48.8125 35.9594C49.9027 35.6942 51.3327 35.1833 52.4036 34.833C55.8187 33.7156 58.8636 32.5274 61.9042 30.6084Z" fill="url(#paint8_linear_89_10339)"/>
<path d="M33.3827 20.4523C34.5613 19.5142 36.4111 18.4482 37.7177 17.6931C44.8538 13.5685 53.5386 11.3342 61.787 12.1759C66.5955 12.6665 72.3255 14.7969 75.4109 18.6453C77.5853 21.3574 78.3369 24.7898 77.9038 28.2917C77.4925 31.6164 75.909 35.3873 73.5684 37.9053C73.5569 37.9136 73.5453 37.9218 73.5336 37.93L73.5013 37.7699C74.6301 35.9575 72.1404 35.4934 70.9202 35.0706C70.6604 34.9807 70.1982 34.5613 69.8656 34.4207C69.7947 34.4326 69.3835 34.4859 69.3635 34.4689C68.5549 33.7794 67.2853 33.4062 66.4827 32.9361C65.6302 32.4365 64.8466 31.1681 63.8076 30.7999C63.1702 30.5742 62.5462 30.6323 61.9043 30.609C63.8506 29.2904 66.5222 26.7764 66.0516 24.0458C65.8853 23.0804 65.0119 21.9626 64.1488 21.4885C60.2735 19.3595 54.6868 20.1836 50.5577 21.1185C46.7844 21.9238 43.1092 23.1351 39.5967 24.7312C38.4314 25.2603 37.3329 25.9193 36.2017 26.4451C35.4672 26.1259 33.5993 27.9299 32.8353 28.0688L32.8288 27.9775C34.5916 25.8288 31.3888 23.4839 31.4461 22.6596C31.5092 21.7542 32.8444 21.1788 33.4243 20.6132L33.3827 20.4523Z" fill="url(#paint9_linear_89_10339)"/>
<path d="M28.3407 75.3804C27.0999 75.12 25.8092 74.9574 24.5572 74.6902C20.8816 73.9062 17.3605 72.5087 14.8392 69.6002C12.8143 67.2644 11.999 64.4181 12.1784 61.3633C12.4088 57.4394 14.9358 52.7188 17.8801 50.1699L17.8218 50.2935C17.5664 50.8225 17.3062 51.1863 16.9682 51.6546L17.0207 51.7419C17.6099 51.7177 17.6784 52.1225 17.9559 52.591C19.1982 54.6877 20.5614 56.3059 22.7059 57.552C23.0861 57.7731 23.6828 58.1228 24.0125 58.4643L24.1113 58.5656C24.5093 58.9821 24.7058 59.1476 24.4036 59.6532C24.5842 59.7161 24.5016 59.7012 24.6484 59.7137C18.0141 65.8732 20.3638 72.3298 28.3407 75.3804Z" fill="#1833CA"/>
<path d="M33.384 20.4521L33.4257 20.6131C32.8458 21.1786 31.5105 21.7541 31.4474 22.6595C31.3901 23.4838 34.593 25.8287 32.8301 27.9774L32.8366 28.0687C33.6006 27.9297 35.4686 26.1257 36.2031 26.4449C32.764 28.369 29.5789 30.4274 26.5748 32.9977C25.3267 34.0409 24.1236 35.1366 22.9685 36.2817C22.3909 36.8583 21.7257 37.6118 21.1596 38.1454L20.9845 38.0236L20.9999 37.8897C21.2186 37.6986 21.3011 37.6228 21.4928 37.4081C21.5288 37.0919 21.1541 35.4644 21.2238 34.9432C21.2636 34.6451 20.9347 33.4925 20.8359 33.1613C21.0698 32.7902 21.0968 32.763 21.2021 32.3465C23.0159 29.2195 30.2803 22.3215 33.384 20.4521Z" fill="url(#paint10_linear_89_10339)"/>
<path d="M21.2001 32.3477C21.0948 32.7641 21.0678 32.7913 20.8339 33.1625C20.9327 33.4936 21.2616 34.6463 21.2217 34.9443C21.1521 35.4656 21.5268 37.093 21.4908 37.4092C21.299 37.6239 21.2166 37.6997 20.9978 37.8908L20.9825 38.0247L21.1576 38.1465C20.1632 39.2242 18.9503 40.9452 18.1082 41.8193C16.7005 43.7934 15.5079 45.5616 14.3269 47.6833C13.9079 47.7691 14.0985 47.8044 13.7363 47.5689C14.7577 44.2352 16.0648 40.6745 17.8463 37.6579C18.2083 36.7052 20.5176 33.2249 21.2001 32.3477Z" fill="#1833CA"/>
<path d="M17.8463 37.6562C17.8841 38.6675 17.2312 39.1869 17.2162 39.8706C17.1969 40.7502 17.1997 41.7552 17.1729 42.6688C17.4515 42.2338 17.5601 41.8853 18.1082 41.8177C16.7005 43.7918 15.5079 45.56 14.3269 47.6817C13.9079 47.7675 14.0985 47.8028 13.7363 47.5672C14.7577 44.2336 16.0648 40.6729 17.8463 37.6562Z" fill="url(#paint11_linear_89_10339)"/>
<path d="M87.3184 64.1705L88.5005 62.4941C88.128 63.5168 87.7753 64.5074 87.3418 65.5068C87.3702 64.8427 87.6517 64.7351 87.3184 64.1705Z" fill="#0E1133" fill-opacity="0.988235"/>
<path d="M13.7379 47.5674C14.1001 47.8029 13.9095 47.7676 14.3285 47.6818C13.8913 48.4873 13.6586 49.0327 13.2734 49.805C13.3033 49.3014 13.6238 48.1313 13.7379 47.5674Z" fill="#0E1133"/>
</g>
<defs>
<filter id="filter0_f_89_10339" x="0.276499" y="0.122202" width="107.865" height="104.239" filterUnits="userSpaceOnUse" color-interpolation-filters="sRGB">
<feFlood flood-opacity="0" result="BackgroundImageFix"/>
<feBlend mode="normal" in="SourceGraphic" in2="BackgroundImageFix" result="shape"/>
<feGaussianBlur stdDeviation="5.9389" result="effect1_foregroundBlur_89_10339"/>
</filter>
<linearGradient id="paint0_linear_89_10339" x1="78.774" y1="79.4317" x2="57.8992" y2="51.9032" gradientUnits="userSpaceOnUse">
<stop stop-color="#383BD6"/>
<stop offset="1" stop-color="#5461FF"/>
</linearGradient>
<linearGradient id="paint1_linear_89_10339" x1="89.5688" y1="69.0268" x2="70.9382" y2="78.9861" gradientUnits="userSpaceOnUse">
<stop stop-color="#141C88"/>
<stop offset="1" stop-color="#2532C6"/>
</linearGradient>
<linearGradient id="paint2_linear_89_10339" x1="28.8078" y1="63.208" x2="61.7396" y2="25.7875" gradientUnits="userSpaceOnUse">
<stop stop-color="#1543F6"/>
<stop offset="1" stop-color="#4F8CFF"/>
</linearGradient>
<linearGradient id="paint3_linear_89_10339" x1="37.562" y1="37.1447" x2="74.8053" y2="17.5667" gradientUnits="userSpaceOnUse">
<stop stop-color="#0745F9"/>
<stop offset="1" stop-color="#8C9EFF"/>
</linearGradient>
<linearGradient id="paint4_linear_89_10339" x1="19.8541" y1="31.5441" x2="33.6651" y2="27.6902" gradientUnits="userSpaceOnUse">
<stop stop-color="#1426AD"/>
<stop offset="1" stop-color="#1F47F4"/>
</linearGradient>
<linearGradient id="paint5_linear_89_10339" x1="13.4416" y1="43.87" x2="17.5997" y2="43.3769" gradientUnits="userSpaceOnUse">
<stop stop-color="#050E50"/>
<stop offset="1" stop-color="#101E82"/>
</linearGradient>
<linearGradient id="paint6_linear_89_10339" x1="78.774" y1="79.4317" x2="57.8992" y2="51.9032" gradientUnits="userSpaceOnUse">
<stop stop-color="#383BD6"/>
<stop offset="1" stop-color="#5461FF"/>
</linearGradient>
<linearGradient id="paint7_linear_89_10339" x1="89.5688" y1="69.0268" x2="70.9382" y2="78.9861" gradientUnits="userSpaceOnUse">
<stop stop-color="#141C88"/>
<stop offset="1" stop-color="#2532C6"/>
</linearGradient>
<linearGradient id="paint8_linear_89_10339" x1="28.8078" y1="63.208" x2="61.7396" y2="25.7875" gradientUnits="userSpaceOnUse">
<stop stop-color="#1543F6"/>
<stop offset="1" stop-color="#4F8CFF"/>
</linearGradient>
<linearGradient id="paint9_linear_89_10339" x1="37.562" y1="37.1447" x2="74.8053" y2="17.5667" gradientUnits="userSpaceOnUse">
<stop stop-color="#0745F9"/>
<stop offset="1" stop-color="#8C9EFF"/>
</linearGradient>
<linearGradient id="paint10_linear_89_10339" x1="19.8541" y1="31.5441" x2="33.6651" y2="27.6902" gradientUnits="userSpaceOnUse">
<stop stop-color="#1426AD"/>
<stop offset="1" stop-color="#1F47F4"/>
</linearGradient>
<linearGradient id="paint11_linear_89_10339" x1="13.4416" y1="43.87" x2="17.5997" y2="43.3769" gradientUnits="userSpaceOnUse">
<stop stop-color="#050E50"/>
<stop offset="1" stop-color="#101E82"/>
</linearGradient>
</defs>
</svg>
