<svg width="32" height="32" viewBox="0 0 186 234" fill="none" xmlns="http://www.w3.org/2000/svg">
<path d="M140.236 57.2722C145.109 57.2568 151.374 58.7125 155.627 61.2426C167.196 68.1245 165.606 82.6144 159.803 93.4384C150.33 111.108 132.761 120.491 115.286 125.858C108.06 128.077 100.751 129.879 93.4817 131.915C86.6414 134.106 78.6285 137.536 74.8254 144.475C72.6567 148.431 73.1031 153.807 77.2622 155.821C86.0057 160.055 98.1196 157.354 106.841 154.29C120.294 149.022 132.341 140.214 141.908 128.651C144.335 125.739 146.785 122.294 149.004 119.172C149.573 120.22 149.092 120.42 149.044 121.653C144.572 134.479 134.328 148.556 124.223 156.63C122.988 157.617 120.077 159.954 118.781 160.695C118.594 160.891 118.369 161.027 118.143 161.18C105.797 169.536 90.9323 174.045 76.4839 170.58C69.3773 168.875 62.4794 164.763 58.5537 157.953C55.6307 152.883 54.7193 145.968 56.1211 140.13C62.4315 113.854 92.9831 111.018 112.944 104.599C122.199 101.726 130.429 98.6732 138.757 93.1647C147.354 87.4776 157.746 76.1146 151.508 64.3572C149.406 60.3939 144.213 58.2159 140.236 57.2722Z" fill="url(#paint0_linear_1_2)"/>
<path d="M105.635 56.8442C106.73 56.8874 107.795 56.7795 108.883 57.1987C110.655 57.8825 111.993 60.2381 113.447 61.1659C114.817 62.039 116.983 62.7321 118.363 64.0126C118.398 64.0441 119.099 63.9451 119.22 63.9232C119.788 64.1843 120.576 64.963 121.02 65.13C123.102 65.9152 127.35 66.7773 125.424 70.143L125.479 70.4403C123.421 73.3362 119.972 76.5017 117.176 78.629C104.415 88.3393 88.3142 91.6361 73.4987 95.7886C62.2424 98.9434 51.0082 102.395 42.058 110.895C41.8077 110.872 41.9486 110.9 41.6404 110.783C42.1561 109.844 41.8206 109.537 41.1417 108.763L40.9731 108.575C40.4105 107.941 39.3922 107.291 38.7435 106.881C35.084 104.567 32.7578 101.561 30.6379 97.6675C30.1644 96.7974 30.0475 96.0457 29.0421 96.0906L28.9525 95.9285C29.5293 95.0588 29.9733 94.383 30.4091 93.4007L30.5086 93.1712C30.9879 92.367 33.6402 89.9412 34.4083 89.2272C35.3313 88.756 37.58 86.6704 38.6175 85.9372C49.0296 78.5785 60.9037 74.1448 72.7057 70.2295C76.2139 69.0655 79.8138 68.0301 83.2947 66.7817C85.1551 66.2892 87.5952 65.3404 89.4226 64.6899C95.2502 62.6147 100.446 60.408 105.635 56.8442Z" fill="url(#paint2_linear_1_2)"/>
<path d="M56.965 37.9828C58.9762 36.2407 62.1327 34.2609 64.3623 32.8586C76.5395 25.1986 91.3594 21.0492 105.435 22.6124C113.64 23.5235 123.418 27.48 128.683 34.627C132.393 39.6637 133.676 46.0382 132.937 52.5417C132.235 58.7162 129.533 65.7193 125.539 70.3956C125.519 70.411 125.499 70.4262 125.479 70.4414L125.424 70.1441C127.35 66.7782 123.102 65.9163 121.02 65.1311C120.576 64.9642 119.788 64.1853 119.22 63.9242C119.099 63.9463 118.398 64.0452 118.363 64.0137C116.984 62.7332 114.817 62.0401 113.448 61.167C111.993 60.2392 110.656 57.8836 108.883 57.1998C107.795 56.7807 106.73 56.8886 105.635 56.8453C108.956 54.3965 113.515 49.7276 112.712 44.6565C112.428 42.8636 110.938 40.7877 109.465 39.9072C102.852 35.9534 93.3188 37.4838 86.2728 39.2201C79.8339 40.7156 73.5625 42.9652 67.5687 45.9294C65.5802 46.912 63.7057 48.1358 61.7754 49.1123C60.522 48.5195 57.3346 51.8698 56.0309 52.1278L56.0198 51.9582C59.0279 47.9678 53.5625 43.613 53.6603 42.0821C53.768 40.4007 56.0464 39.3321 57.036 38.2817L56.965 37.9828Z" fill="url(#paint3_linear_1_2)"/>
<path d="M48.3612 139.992C46.2439 139.509 44.0414 139.207 41.9049 138.71C35.6328 137.254 29.6243 134.659 25.3219 129.258C21.8666 124.92 20.4754 119.634 20.7815 113.96C21.1746 106.673 25.4868 97.9063 30.511 93.1727L30.4115 93.4022C29.9757 94.3846 29.5317 95.0603 28.9549 95.93L29.0445 96.0921C30.0499 96.0472 30.1668 96.7989 30.6403 97.669C32.7602 101.563 35.0864 104.568 38.7458 106.882C39.3946 107.293 40.4128 107.942 40.9755 108.577L41.144 108.765C41.8232 109.538 42.1585 109.846 41.6428 110.785C41.951 110.901 41.8101 110.874 42.0606 110.897C30.7397 122.336 34.7492 134.327 48.3612 139.992Z" fill="#1833CA"/>
<defs>
<linearGradient id="paint0_linear_1_2" x1="134.422" y1="147.516" x2="94.892" y2="99.6172" gradientUnits="userSpaceOnUse">
<stop stop-color="#383BD6"/>
<stop offset="1" stop-color="#5461FF"/>
</linearGradient>
<linearGradient id="paint2_linear_1_2" x1="49.1583" y1="117.386" x2="110.76" y2="53.069" gradientUnits="userSpaceOnUse">
<stop stop-color="#1543F6"/>
<stop offset="1" stop-color="#4F8CFF"/>
</linearGradient>
<linearGradient id="paint3_linear_1_2" x1="64.0966" y1="68.983" x2="129.867" y2="37.2149" gradientUnits="userSpaceOnUse">
<stop stop-color="#0745F9"/>
<stop offset="1" stop-color="#8C9EFF"/>
</linearGradient>
</defs>
</svg>

