<svg width="186" height="234" viewBox="0 0 186 234" fill="none" xmlns="http://www.w3.org/2000/svg">
<path d="M140.236 57.2722C145.109 57.2568 151.374 58.7125 155.627 61.2426C167.196 68.1245 165.606 82.6144 159.803 93.4384C150.33 111.108 132.761 120.491 115.286 125.858C108.06 128.077 100.751 129.879 93.4817 131.915C86.6414 134.106 78.6285 137.536 74.8254 144.475C72.6567 148.431 73.1031 153.807 77.2622 155.821C86.0057 160.055 98.1196 157.354 106.841 154.29C120.294 149.022 132.341 140.214 141.908 128.651C144.335 125.739 146.785 122.294 149.004 119.172C149.573 120.22 149.092 120.42 149.044 121.653C144.572 134.479 134.328 148.556 124.223 156.63C122.988 157.617 120.077 159.954 118.781 160.695C118.594 160.891 118.369 161.027 118.143 161.18C105.797 169.536 90.9323 174.045 76.4839 170.58C69.3773 168.875 62.4794 164.763 58.5537 157.953C55.6307 152.883 54.7193 145.968 56.1211 140.13C62.4315 113.854 92.9831 111.018 112.944 104.599C122.199 101.726 130.429 98.6732 138.757 93.1647C147.354 87.4776 157.746 76.1146 151.508 64.3572C149.406 60.3939 144.213 58.2159 140.236 57.2722Z" fill="url(#paint0_linear_1_2)"/>
<path d="M149.004 119.175C149.572 120.223 149.092 120.423 149.044 121.656C144.572 134.481 134.328 148.559 124.223 156.633C122.987 157.62 120.077 159.957 118.781 160.698C119.107 159.469 125.373 155.605 126.488 154.018L126.304 153.615C126.124 153.671 125.964 153.743 125.794 153.828C125.306 153.491 124.554 153.238 124.217 152.883C122.856 151.448 123.582 148.107 123.552 145.957C120.723 147.981 109.915 154.597 106.841 154.293C120.294 149.025 132.341 140.217 141.908 128.654C144.335 125.742 146.785 122.297 149.004 119.175Z" fill="url(#paint1_linear_1_2)"/>
<path d="M105.635 56.8442C106.73 56.8874 107.795 56.7795 108.883 57.1987C110.655 57.8825 111.993 60.2381 113.447 61.1659C114.817 62.039 116.983 62.7321 118.363 64.0126C118.398 64.0441 119.099 63.9451 119.22 63.9232C119.788 64.1843 120.576 64.963 121.02 65.13C123.102 65.9152 127.35 66.7773 125.424 70.143L125.479 70.4403C123.421 73.3362 119.972 76.5017 117.176 78.629C104.415 88.3393 88.3142 91.6361 73.4987 95.7886C62.2424 98.9434 51.0082 102.395 42.058 110.895C41.8077 110.872 41.9486 110.9 41.6404 110.783C42.1561 109.844 41.8206 109.537 41.1417 108.763L40.9731 108.575C40.4105 107.941 39.3922 107.291 38.7435 106.881C35.084 104.567 32.7578 101.561 30.6379 97.6675C30.1644 96.7974 30.0475 96.0457 29.0421 96.0906L28.9525 95.9285C29.5293 95.0588 29.9733 94.383 30.4091 93.4007L30.5086 93.1712C30.9879 92.367 33.6402 89.9412 34.4083 89.2272C35.3313 88.756 37.58 86.6704 38.6175 85.9372C49.0296 78.5785 60.9037 74.1448 72.7057 70.2295C76.2139 69.0655 79.8138 68.0301 83.2947 66.7817C85.1551 66.2892 87.5952 65.3404 89.4226 64.6899C95.2502 62.6147 100.446 60.408 105.635 56.8442Z" fill="url(#paint2_linear_1_2)"/>
<path d="M56.965 37.9828C58.9762 36.2407 62.1327 34.2609 64.3623 32.8586C76.5395 25.1986 91.3594 21.0492 105.435 22.6124C113.64 23.5235 123.418 27.48 128.683 34.627C132.393 39.6637 133.676 46.0382 132.937 52.5417C132.235 58.7162 129.533 65.7193 125.539 70.3956C125.519 70.411 125.499 70.4262 125.479 70.4414L125.424 70.1441C127.35 66.7782 123.102 65.9163 121.02 65.1311C120.576 64.9642 119.788 64.1853 119.22 63.9242C119.099 63.9463 118.398 64.0452 118.363 64.0137C116.984 62.7332 114.817 62.0401 113.448 61.167C111.993 60.2392 110.656 57.8836 108.883 57.1998C107.795 56.7807 106.73 56.8886 105.635 56.8453C108.956 54.3965 113.515 49.7276 112.712 44.6565C112.428 42.8636 110.938 40.7877 109.465 39.9072C102.852 35.9534 93.3188 37.4838 86.2728 39.2201C79.8339 40.7156 73.5625 42.9652 67.5687 45.9294C65.5802 46.912 63.7057 48.1358 61.7754 49.1123C60.522 48.5195 57.3346 51.8698 56.0309 52.1278L56.0198 51.9582C59.0279 47.9678 53.5625 43.613 53.6603 42.0821C53.768 40.4007 56.0464 39.3321 57.036 38.2817L56.965 37.9828Z" fill="url(#paint3_linear_1_2)"/>
<path d="M48.3612 139.992C46.2439 139.509 44.0414 139.207 41.9049 138.71C35.6328 137.254 29.6243 134.659 25.3219 129.258C21.8666 124.92 20.4754 119.634 20.7815 113.96C21.1746 106.673 25.4868 97.9063 30.511 93.1727L30.4115 93.4022C29.9757 94.3846 29.5317 95.0603 28.9549 95.93L29.0445 96.0921C30.0499 96.0472 30.1668 96.7989 30.6403 97.669C32.7602 101.563 35.0864 104.568 38.7458 106.882C39.3946 107.293 40.4128 107.942 40.9755 108.577L41.144 108.765C41.8232 109.538 42.1585 109.846 41.6428 110.785C41.951 110.901 41.8101 110.874 42.0606 110.897C30.7397 122.336 34.7492 134.327 48.3612 139.992Z" fill="#1833CA"/>
<path d="M56.9672 37.9825L57.0384 38.2815C56.0488 39.3317 53.7702 40.4005 53.6625 42.0819C53.5648 43.6128 59.0303 47.9676 56.022 51.958L56.0331 52.1276C57.3368 51.8694 60.5244 48.5192 61.7778 49.112C55.9092 52.6853 50.4741 56.508 45.3478 61.2814C43.218 63.2188 41.165 65.2537 39.194 67.3803C38.2083 68.4511 37.0732 69.8505 36.1072 70.8415L35.8084 70.6153L35.8347 70.3666C36.2079 70.0117 36.3487 69.8709 36.6758 69.4722C36.7372 68.885 36.0978 65.8625 36.2168 64.8945C36.2847 64.3409 35.7234 62.2004 35.5548 61.5853C35.954 60.8961 36 60.8456 36.1797 60.0721C39.2748 54.2648 51.671 41.4542 56.9672 37.9825Z" fill="url(#paint4_linear_1_2)"/>
<path d="M36.1763 60.0743C35.9966 60.8476 35.9506 60.8981 35.5514 61.5875C35.72 62.2024 36.2813 64.3431 36.2132 64.8966C36.0944 65.8647 36.7338 68.887 36.6724 69.4742C36.3451 69.873 36.2045 70.0137 35.8311 70.3686L35.805 70.6173L36.1038 70.8435C34.4069 72.8449 32.3372 76.0411 30.9002 77.6644C28.4981 81.3306 26.463 84.6144 24.4477 88.5547C23.7327 88.714 24.058 88.7796 23.4399 88.3422C25.1829 82.1511 27.4133 75.5384 30.4533 69.9361C31.071 68.1668 35.0117 61.7034 36.1763 60.0743Z" fill="#1833CA"/>
<path d="M30.4533 69.9329C30.5178 71.8111 29.4037 72.7757 29.3781 74.0454C29.3452 75.6789 29.3499 77.5454 29.3042 79.2421C29.7796 78.4342 29.9649 77.787 30.9002 77.6614C28.4981 81.3276 26.463 84.6114 24.4477 88.5517C23.7327 88.7111 24.058 88.7766 23.4399 88.3391C25.1829 82.1481 27.4133 75.5354 30.4533 69.9329Z" fill="url(#paint5_linear_1_2)"/>
<path d="M149.002 119.174L151.019 116.06C150.384 117.96 149.782 119.799 149.042 121.655C149.09 120.422 149.571 120.222 149.002 119.174Z" fill="#0E1133" fill-opacity="0.988235"/>
<path d="M23.4427 88.3395C24.0607 88.7768 23.7355 88.7113 24.4505 88.5519C23.7044 90.0478 23.3073 91.0607 22.65 92.495C22.701 91.5597 23.248 89.3867 23.4427 88.3395Z" fill="#0E1133"/>
<g opacity="0.25" filter="url(#filter0_f_1_2)">
<path d="M139.973 72.1294C144.845 72.114 151.111 73.5696 155.364 76.0998C166.933 82.9816 165.343 97.4716 159.54 108.296C150.067 125.965 132.498 135.349 115.023 140.715C107.797 142.935 100.488 144.736 93.2184 146.772C86.3781 148.963 78.3652 152.394 74.5621 159.332C72.3934 163.288 72.8398 168.664 76.9989 170.678C85.7424 174.912 97.8563 172.211 106.578 169.147C120.031 163.879 132.078 155.071 141.645 143.508C144.072 140.596 146.521 137.151 148.74 134.029C149.309 135.077 148.829 135.277 148.781 136.51C144.309 149.336 134.065 163.413 123.96 171.487C122.724 172.474 119.814 174.811 118.517 175.552C118.33 175.748 118.106 175.884 117.879 176.037C105.534 184.393 90.6691 188.902 76.2206 185.437C69.114 183.732 62.2162 179.62 58.2904 172.81C55.3674 167.74 54.456 160.825 55.8579 154.987C62.1682 128.711 92.7198 125.875 112.68 119.457C121.935 116.584 130.166 113.53 138.494 108.022C147.091 102.335 157.482 90.9718 151.245 79.2144C149.143 75.2511 143.95 73.073 139.973 72.1294Z" fill="url(#paint6_linear_1_2)"/>
<path d="M148.74 134.032C149.309 135.08 148.829 135.28 148.78 136.513C144.309 149.339 134.065 163.416 123.96 171.49C122.724 172.477 119.814 174.814 118.517 175.555C118.844 174.326 125.11 170.462 126.225 168.875L126.041 168.472C125.861 168.528 125.701 168.601 125.531 168.685C125.043 168.348 124.291 168.096 123.953 167.74C122.593 166.305 123.319 162.964 123.289 160.814C120.46 162.839 109.651 169.454 106.578 169.15C120.031 163.882 132.078 155.074 141.645 143.511C144.072 140.599 146.521 137.154 148.74 134.032Z" fill="url(#paint7_linear_1_2)"/>
<path d="M105.371 71.7013C106.467 71.7446 107.532 71.6367 108.619 72.0558C110.392 72.7396 111.73 75.0952 113.184 76.0231C114.554 76.8961 116.72 77.5892 118.1 78.8697C118.134 78.9013 118.836 78.8023 118.957 78.7804C119.524 79.0415 120.313 79.8202 120.756 79.9871C122.839 80.7723 127.087 81.6344 125.161 85.0001L125.216 85.2975C123.158 88.1933 119.708 91.3588 116.913 93.4862C104.151 103.196 88.0509 106.493 73.2354 110.646C61.9791 113.801 50.7449 117.253 41.7947 125.753C41.5444 125.729 41.6853 125.757 41.3772 125.64C41.8929 124.701 41.5574 124.394 40.8784 123.62L40.7098 123.432C40.1472 122.798 39.129 122.149 38.4802 121.738C34.8208 119.424 32.4946 116.419 30.3747 112.525C29.9011 111.655 29.7843 110.903 28.7788 110.948L28.6892 110.786C29.266 109.916 29.71 109.24 30.1458 108.258L30.2453 108.028C30.7247 107.224 33.3769 104.798 34.145 104.084C35.068 103.613 37.3167 101.528 38.3542 100.794C48.7663 93.4356 60.6405 89.0019 72.4424 85.0867C75.9506 83.9226 79.5505 82.8873 83.0314 81.6389C84.8918 81.1464 87.332 80.1976 89.1594 79.547C94.987 77.4718 100.183 75.2652 105.371 71.7013Z" fill="url(#paint8_linear_1_2)"/>
<path d="M56.7017 52.84C58.7129 51.0978 61.8694 49.1181 64.099 47.7158C76.2762 40.0558 91.0962 35.9064 105.171 37.4695C113.377 38.3806 123.155 42.3371 128.42 49.4841C132.13 54.5209 133.413 60.8953 132.673 67.3989C131.972 73.5733 129.27 80.5764 125.275 85.2527C125.256 85.2681 125.236 85.2833 125.216 85.2986L125.161 85.0012C127.087 81.6354 122.839 80.7735 120.757 79.9883C120.313 79.8213 119.524 79.0424 118.957 78.7813C118.836 78.8034 118.134 78.9024 118.1 78.8708C116.72 77.5903 114.554 76.8972 113.184 76.0242C111.73 75.0964 110.392 72.7408 108.619 72.057C107.532 71.6378 106.467 71.7457 105.372 71.7024C108.693 69.2536 113.252 64.5847 112.449 59.5136C112.165 57.7207 110.674 55.6448 109.202 54.7644C102.589 50.8105 93.0555 52.341 86.0095 54.0772C79.5706 55.5728 73.2992 57.8223 67.3054 60.7865C65.3169 61.7691 63.4424 62.993 61.5121 63.9695C60.2587 63.3767 57.0713 66.727 55.7676 66.9849L55.7565 66.8154C58.7646 62.8249 53.2993 58.4701 53.397 56.9393C53.5047 55.2578 55.7831 54.1892 56.7727 53.1388L56.7017 52.84Z" fill="url(#paint9_linear_1_2)"/>
<path d="M48.0979 154.849C45.9806 154.366 43.7781 154.064 41.6417 153.568C35.3695 152.112 29.3611 149.516 25.0587 144.115C21.6033 139.777 20.2121 134.491 20.5182 128.818C20.9114 121.53 25.2235 112.763 30.2477 108.03L30.1482 108.259C29.7124 109.242 29.2684 109.917 28.6916 110.787L28.7812 110.949C29.7866 110.904 29.9035 111.656 30.3771 112.526C32.497 116.42 34.8231 119.425 38.4826 121.739C39.1314 122.15 40.1496 122.799 40.7122 123.434L40.8808 123.622C41.5599 124.395 41.8952 124.703 41.3796 125.642C41.6877 125.758 41.5468 125.731 41.7973 125.754C30.4764 137.193 34.486 149.184 48.0979 154.849Z" fill="#1833CA"/>
<path d="M56.7039 52.8396L56.7751 53.1386C55.7855 54.1888 53.5069 55.2576 53.3993 56.9391C53.3015 58.4699 58.767 62.8247 55.7587 66.8152L55.7698 66.9847C57.0735 66.7266 60.2611 63.3763 61.5145 63.9691C55.6459 67.5424 50.2108 71.3652 45.0846 76.1386C42.9548 78.076 40.9018 80.1108 38.9307 82.2374C37.9451 83.3083 36.8099 84.7076 35.8439 85.6986L35.5451 85.4724L35.5714 85.2237C35.9446 84.8688 36.0854 84.7281 36.4125 84.3293C36.4739 83.7421 35.8346 80.7196 35.9535 79.7517C36.0214 79.198 35.4602 77.0575 35.2916 76.4424C35.6907 75.7532 35.7368 75.7027 35.9165 74.9292C39.0116 69.1219 51.4077 56.3114 56.7039 52.8396Z" fill="url(#paint10_linear_1_2)"/>
<path d="M35.913 74.9314C35.7334 75.7048 35.6873 75.7553 35.2882 76.4446C35.4567 77.0595 36.018 79.2003 35.9499 79.7537C35.8311 80.7218 36.4705 83.7441 36.4091 84.3314C36.0818 84.7301 35.9412 84.8709 35.5678 85.2258L35.5417 85.4744L35.8405 85.7006C34.1437 87.7021 32.0739 90.8982 30.637 92.5216C28.2348 96.1877 26.1997 99.4715 24.1845 103.412C23.4695 103.571 23.7947 103.637 23.1767 103.199C24.9196 97.0082 27.1501 90.3955 30.19 84.7932C30.8078 83.0239 34.7484 76.5605 35.913 74.9314Z" fill="#1833CA"/>
<path d="M30.19 84.7901C30.2545 86.6682 29.1404 87.6328 29.1148 88.9025C29.0819 90.5361 29.0867 92.4025 29.0409 94.0992C29.5163 93.2913 29.7017 92.6441 30.637 92.5186C28.2348 96.1848 26.1997 99.4686 24.1845 103.409C23.4695 103.568 23.7947 103.634 23.1767 103.196C24.9196 97.0053 27.1501 90.3925 30.19 84.7901Z" fill="url(#paint11_linear_1_2)"/>
<path d="M148.739 134.031L150.756 130.918C150.12 132.817 149.518 134.657 148.779 136.513C148.827 135.279 149.308 135.079 148.739 134.031Z" fill="#0E1133" fill-opacity="0.988235"/>
<path d="M23.1794 103.197C23.7974 103.634 23.4722 103.568 24.1872 103.409C23.4411 104.905 23.0441 105.918 22.3867 107.352C22.4378 106.417 22.9847 104.244 23.1794 103.197Z" fill="#0E1133"/>
</g>
<defs>
<filter id="filter0_f_1_2" x="8.59927" y="25.2651" width="167.282" height="173.225" filterUnits="userSpaceOnUse" color-interpolation-filters="sRGB">
<feFlood flood-opacity="0" result="BackgroundImageFix"/>
<feBlend mode="normal" in="SourceGraphic" in2="BackgroundImageFix" result="shape"/>
<feGaussianBlur stdDeviation="5.9389" result="effect1_foregroundBlur_1_2"/>
</filter>
<linearGradient id="paint0_linear_1_2" x1="134.422" y1="147.516" x2="94.892" y2="99.6172" gradientUnits="userSpaceOnUse">
<stop stop-color="#383BD6"/>
<stop offset="1" stop-color="#5461FF"/>
</linearGradient>
<linearGradient id="paint1_linear_1_2" x1="152.842" y1="128.193" x2="119.911" y2="144.368" gradientUnits="userSpaceOnUse">
<stop stop-color="#141C88"/>
<stop offset="1" stop-color="#2532C6"/>
</linearGradient>
<linearGradient id="paint2_linear_1_2" x1="49.1583" y1="117.386" x2="110.76" y2="53.069" gradientUnits="userSpaceOnUse">
<stop stop-color="#1543F6"/>
<stop offset="1" stop-color="#4F8CFF"/>
</linearGradient>
<linearGradient id="paint3_linear_1_2" x1="64.0966" y1="68.983" x2="129.867" y2="37.2149" gradientUnits="userSpaceOnUse">
<stop stop-color="#0745F9"/>
<stop offset="1" stop-color="#8C9EFF"/>
</linearGradient>
<linearGradient id="paint4_linear_1_2" x1="33.8795" y1="58.5819" x2="57.715" y2="52.4705" gradientUnits="userSpaceOnUse">
<stop stop-color="#1426AD"/>
<stop offset="1" stop-color="#1F47F4"/>
</linearGradient>
<linearGradient id="paint5_linear_1_2" x1="22.937" y1="81.4729" x2="30.0479" y2="80.698" gradientUnits="userSpaceOnUse">
<stop stop-color="#050E50"/>
<stop offset="1" stop-color="#101E82"/>
</linearGradient>
<linearGradient id="paint6_linear_1_2" x1="134.158" y1="162.373" x2="94.6287" y2="114.474" gradientUnits="userSpaceOnUse">
<stop stop-color="#383BD6"/>
<stop offset="1" stop-color="#5461FF"/>
</linearGradient>
<linearGradient id="paint7_linear_1_2" x1="152.579" y1="143.05" x2="119.647" y2="159.225" gradientUnits="userSpaceOnUse">
<stop stop-color="#141C88"/>
<stop offset="1" stop-color="#2532C6"/>
</linearGradient>
<linearGradient id="paint8_linear_1_2" x1="48.895" y1="132.243" x2="110.497" y2="67.9261" gradientUnits="userSpaceOnUse">
<stop stop-color="#1543F6"/>
<stop offset="1" stop-color="#4F8CFF"/>
</linearGradient>
<linearGradient id="paint9_linear_1_2" x1="63.8333" y1="83.8402" x2="129.604" y2="52.0721" gradientUnits="userSpaceOnUse">
<stop stop-color="#0745F9"/>
<stop offset="1" stop-color="#8C9EFF"/>
</linearGradient>
<linearGradient id="paint10_linear_1_2" x1="33.6162" y1="73.439" x2="57.4517" y2="67.3276" gradientUnits="userSpaceOnUse">
<stop stop-color="#1426AD"/>
<stop offset="1" stop-color="#1F47F4"/>
</linearGradient>
<linearGradient id="paint11_linear_1_2" x1="22.6738" y1="96.33" x2="29.7846" y2="95.5552" gradientUnits="userSpaceOnUse">
<stop stop-color="#050E50"/>
<stop offset="1" stop-color="#101E82"/>
</linearGradient>
</defs>
</svg>
